<?xml version="1.0" encoding="utf-8"?>
<svg version="1.1" xmlns:xlink="http://www.w3.org/1999/xlink" width="27px" height="19px" xmlns="http://www.w3.org/2000/svg">
  <g transform="matrix(1 0 0 1 -793 -406 )">
    <path d="M 26.109375 8.6650390625  C 26.703125 8.90006510416667  27 9.17838541666667  27 9.5  C 27 9.82161458333333  26.703125 10.0999348958333  26.109375 10.3349609375  L 5.109375 18.6474609375  C 4.515625 18.8824869791667  3.8125 19  3 19  C 2.1875 19  1.484375 18.8824869791667  0.890625 18.6474609375  C 0.296875 18.4124348958333  0 18.1341145833333  0 17.8125  L 0 1.1875  C 0 0.865885416666664  0.296875 0.587565104166664  0.890625 0.3525390625  C 1.484375 0.117513020833332  2.1875 0  3 0  C 3.8125 0  4.515625 0.117513020833332  5.109375 0.3525390625  L 26.109375 8.6650390625  Z " fill-rule="nonzero" fill="#d7d7d7" stroke="none" transform="matrix(1 0 0 1 793 406 )" />
  </g>
</svg>