<?xml version="1.0" encoding="utf-8"?>
<svg version="1.1" xmlns:xlink="http://www.w3.org/1999/xlink" width="27px" height="19px" xmlns="http://www.w3.org/2000/svg">
  <g transform="matrix(1 0 0 1 -547 -406 )">
    <path d="M 26.109375 0.3525390625  C 26.703125 0.587565104166664  27 0.865885416666664  27 1.1875  L 27 17.8125  C 27 18.1341145833333  26.703125 18.4124348958333  26.109375 18.6474609375  C 25.515625 18.8824869791667  24.8125 19  24 19  C 23.1875 19  22.484375 18.8824869791667  21.890625 18.6474609375  L 0.890625 10.3349609375  C 0.296875 10.0999348958333  0 9.82161458333333  0 9.5  C 0 9.17838541666667  0.296875 8.90006510416667  0.890625 8.6650390625  L 21.890625 0.3525390625  C 22.484375 0.117513020833332  23.1875 0  24 0  C 24.8125 0  25.515625 0.117513020833332  26.109375 0.3525390625  Z " fill-rule="nonzero" fill="#8c8c8c" stroke="none" transform="matrix(1 0 0 1 547 406 )" />
  </g>
</svg>