<?xml version="1.0" encoding="utf-8"?>
<svg version="1.1" xmlns:xlink="http://www.w3.org/1999/xlink" width="27px" height="27px" xmlns="http://www.w3.org/2000/svg">
  <g transform="matrix(1 0 0 1 -1310 -27 )">
    <path d="M 16.681640625 16.681640625  C 17.560546875 15.802734375  18 14.7421875  18 13.5  C 18 12.2578125  17.560546875 11.197265625  16.681640625 10.318359375  C 15.802734375 9.439453125  14.7421875 9  13.5 9  C 12.2578125 9  11.197265625 9.439453125  10.318359375 10.318359375  C 9.439453125 11.197265625  9 12.2578125  9 13.5  C 9 14.7421875  9.439453125 15.802734375  10.318359375 16.681640625  C 11.197265625 17.560546875  12.2578125 18  13.5 18  C 14.7421875 18  15.802734375 17.560546875  16.681640625 16.681640625  Z M 18.404296875 8.595703125  C 19.751953125 9.943359375  20.42578125 11.578125  20.42578125 13.5  C 20.42578125 15.421875  19.751953125 17.056640625  18.404296875 18.404296875  C 17.056640625 19.751953125  15.421875 20.42578125  13.5 20.42578125  C 11.578125 20.42578125  9.943359375 19.751953125  8.595703125 18.404296875  C 7.248046875 17.056640625  6.57421875 15.421875  6.57421875 13.5  C 6.57421875 11.578125  7.248046875 9.943359375  8.595703125 8.595703125  C 9.943359375 7.248046875  11.578125 6.57421875  13.5 6.57421875  C 15.421875 6.57421875  17.056640625 7.248046875  18.404296875 8.595703125  Z M 21.849609375 5.150390625  C 22.166015625 5.466796875  22.32421875 5.84765625  22.32421875 6.29296875  C 22.32421875 6.73828125  22.166015625 7.119140625  21.849609375 7.435546875  C 21.533203125 7.751953125  21.15234375 7.91015625  20.70703125 7.91015625  C 20.26171875 7.91015625  19.880859375 7.751953125  19.564453125 7.435546875  C 19.248046875 7.119140625  19.08984375 6.73828125  19.08984375 6.29296875  C 19.08984375 5.84765625  19.248046875 5.466796875  19.564453125 5.150390625  C 19.880859375 4.833984375  20.26171875 4.67578125  20.70703125 4.67578125  C 21.15234375 4.67578125  21.533203125 4.833984375  21.849609375 5.150390625  Z M 14.8447265625 2.4169921875  C 14.0302734375 2.4228515625  13.58203125 2.42578125  13.5 2.42578125  C 13.41796875 2.42578125  12.9697265625 2.4228515625  12.1552734375 2.4169921875  C 11.3408203125 2.4111328125  10.72265625 2.4111328125  10.30078125 2.4169921875  C 9.87890625 2.4228515625  9.3134765625 2.4404296875  8.6044921875 2.4697265625  C 7.8955078125 2.4990234375  7.2919921875 2.5576171875  6.7939453125 2.6455078125  C 6.2958984375 2.7333984375  5.876953125 2.841796875  5.537109375 2.970703125  C 4.951171875 3.205078125  4.435546875 3.544921875  3.990234375 3.990234375  C 3.544921875 4.435546875  3.205078125 4.951171875  2.970703125 5.537109375  C 2.841796875 5.876953125  2.7333984375 6.2958984375  2.6455078125 6.7939453125  C 2.5576171875 7.2919921875  2.4990234375 7.8955078125  2.4697265625 8.6044921875  C 2.4404296875 9.3134765625  2.4228515625 9.87890625  2.4169921875 10.30078125  C 2.4111328125 10.72265625  2.4111328125 11.3408203125  2.4169921875 12.1552734375  C 2.4228515625 12.9697265625  2.42578125 13.41796875  2.42578125 13.5  C 2.42578125 13.58203125  2.4228515625 14.0302734375  2.4169921875 14.8447265625  C 2.4111328125 15.6591796875  2.4111328125 16.27734375  2.4169921875 16.69921875  C 2.4228515625 17.12109375  2.4404296875 17.6865234375  2.4697265625 18.3955078125  C 2.4990234375 19.1044921875  2.5576171875 19.7080078125  2.6455078125 20.2060546875  C 2.7333984375 20.7041015625  2.841796875 21.123046875  2.970703125 21.462890625  C 3.205078125 22.048828125  3.544921875 22.564453125  3.990234375 23.009765625  C 4.435546875 23.455078125  4.951171875 23.794921875  5.537109375 24.029296875  C 5.876953125 24.158203125  6.2958984375 24.2666015625  6.7939453125 24.3544921875  C 7.2919921875 24.4423828125  7.8955078125 24.5009765625  8.6044921875 24.5302734375  C 9.3134765625 24.5595703125  9.87890625 24.5771484375  10.30078125 24.5830078125  C 10.72265625 24.5888671875  11.3408203125 24.5888671875  12.1552734375 24.5830078125  C 12.9697265625 24.5771484375  13.41796875 24.57421875  13.5 24.57421875  C 13.58203125 24.57421875  14.0302734375 24.5771484375  14.8447265625 24.5830078125  C 15.6591796875 24.5888671875  16.27734375 24.5888671875  16.69921875 24.5830078125  C 17.12109375 24.5771484375  17.6865234375 24.5595703125  18.3955078125 24.5302734375  C 19.1044921875 24.5009765625  19.7080078125 24.4423828125  20.2060546875 24.3544921875  C 20.7041015625 24.2666015625  21.123046875 24.158203125  21.462890625 24.029296875  C 22.048828125 23.794921875  22.564453125 23.455078125  23.009765625 23.009765625  C 23.455078125 22.564453125  23.794921875 22.048828125  24.029296875 21.462890625  C 24.158203125 21.123046875  24.2666015625 20.7041015625  24.3544921875 20.2060546875  C 24.4423828125 19.7080078125  24.5009765625 19.1044921875  24.5302734375 18.3955078125  C 24.5595703125 17.6865234375  24.5771484375 17.12109375  24.5830078125 16.69921875  C 24.5888671875 16.27734375  24.5888671875 15.6591796875  24.5830078125 14.8447265625  C 24.5771484375 14.0302734375  24.57421875 13.58203125  24.57421875 13.5  C 24.57421875 13.41796875  24.5771484375 12.9697265625  24.5830078125 12.1552734375  C 24.5888671875 11.3408203125  24.5888671875 10.72265625  24.5830078125 10.30078125  C 24.5771484375 9.87890625  24.5595703125 9.3134765625  24.5302734375 8.6044921875  C 24.5009765625 7.8955078125  24.4423828125 7.2919921875  24.3544921875 6.7939453125  C 24.2666015625 6.2958984375  24.158203125 5.876953125  24.029296875 5.537109375  C 23.794921875 4.951171875  23.455078125 4.435546875  23.009765625 3.990234375  C 22.564453125 3.544921875  22.048828125 3.205078125  21.462890625 2.970703125  C 21.123046875 2.841796875  20.7041015625 2.7333984375  20.2060546875 2.6455078125  C 19.7080078125 2.5576171875  19.1044921875 2.4990234375  18.3955078125 2.4697265625  C 17.6865234375 2.4404296875  17.12109375 2.4228515625  16.69921875 2.4169921875  C 16.27734375 2.4111328125  15.6591796875 2.4111328125  14.8447265625 2.4169921875  Z M 26.912109375 7.927734375  C 26.970703125 8.958984375  27 10.81640625  27 13.5  C 27 16.18359375  26.970703125 18.041015625  26.912109375 19.072265625  C 26.794921875 21.509765625  26.068359375 23.396484375  24.732421875 24.732421875  C 23.396484375 26.068359375  21.509765625 26.794921875  19.072265625 26.912109375  C 18.041015625 26.970703125  16.18359375 27  13.5 27  C 10.81640625 27  8.958984375 26.970703125  7.927734375 26.912109375  C 5.490234375 26.794921875  3.603515625 26.068359375  2.267578125 24.732421875  C 0.931640625 23.396484375  0.205078125 21.509765625  0.087890625 19.072265625  C 0.029296875 18.041015625  0 16.18359375  0 13.5  C 0 10.81640625  0.029296875 8.958984375  0.087890625 7.927734375  C 0.205078125 5.490234375  0.931640625 3.603515625  2.267578125 2.267578125  C 3.603515625 0.931640625000001  5.490234375 0.205078124999998  7.927734375 0.087890625000001  C 8.958984375 0.0292968749999963  10.81640625 0  13.5 0  C 16.18359375 0  18.041015625 0.0292968749999963  19.072265625 0.087890625000001  C 21.509765625 0.205078124999998  23.396484375 0.931640625000001  24.732421875 2.267578125  C 26.068359375 3.603515625  26.794921875 5.490234375  26.912109375 7.927734375  Z " fill-rule="nonzero" fill="#ffffff" stroke="none" transform="matrix(1 0 0 1 1310 27 )" />
  </g>
</svg>